<svg version="1.1" id="Layer_1" xmlns="http://www.w3.org/2000/svg" xmlns:xlink="http://www.w3.org/1999/xlink" x="0px" y="0px"
	 width="100%" viewBox="0 0 170 170" enable-background="new 0 0 170 170" xml:space="preserve">
<path fill="#FEFEFE" opacity="1.000000" stroke="none" 
	d="
M121.000000,171.000000 
	C80.666672,171.000000 40.833344,171.000000 1.000011,171.000000 
	C1.000007,114.333344 1.000007,57.666691 1.000004,1.000026 
	C57.666645,1.000017 114.333290,1.000017 170.999954,1.000009 
	C170.999969,57.666641 170.999969,114.333282 170.999985,170.999969 
	C154.500000,171.000000 138.000000,171.000000 121.000000,171.000000 
M107.945549,103.045120 
	C108.038658,102.878960 108.131767,102.712791 108.693932,103.146225 
	C110.763947,108.761536 112.833961,114.376854 114.903976,119.992165 
	C115.508568,119.987724 116.113159,119.983284 116.717743,119.978844 
	C118.918579,114.180145 121.119408,108.381439 123.320236,102.582741 
	C123.966110,108.493477 123.901596,114.149742 124.036354,119.801247 
	C124.056335,120.639565 125.016449,121.455475 125.541618,122.281746 
	C126.109795,121.494308 127.160126,120.713943 127.171791,119.918350 
	C127.292671,111.674286 127.246155,103.427773 127.246155,95.181938 
	C126.626816,94.931419 126.007477,94.680901 125.388138,94.430382 
	C118.762764,98.873764 120.214966,108.138504 115.530609,114.084671 
	C113.551575,108.524933 111.546684,103.270630 109.832336,97.923180 
	C108.921280,95.081383 107.416084,94.233780 104.301910,95.525574 
	C104.301910,103.318352 104.241714,111.285690 104.377663,119.249687 
	C104.394760,120.251778 105.444473,121.236244 106.015755,122.228882 
	C106.576637,121.232155 107.606010,120.241974 107.620071,119.237587 
	C107.694511,113.917900 107.513718,108.594643 107.945549,103.045120 
M67.391716,54.506676 
	C67.392075,62.322456 67.436272,70.138611 67.369080,77.953812 
	C67.345482,80.699150 68.032562,82.359566 71.253296,82.327812 
	C81.562469,82.226166 91.876411,82.409378 102.179459,82.138153 
	C103.453476,82.104614 105.705505,80.031639 105.751175,78.836700 
	C106.066841,70.577881 105.917419,62.301277 105.917419,53.535465 
	C101.844612,53.535465 98.211601,53.422050 94.589111,53.568718 
	C91.249718,53.703922 89.665855,52.520813 89.875984,48.962418 
	C90.089561,45.345726 89.923157,41.706593 89.923157,37.577793 
	C83.268013,37.577793 76.970894,37.376854 70.708977,37.756504 
	C69.532852,37.827808 67.706749,40.129581 67.548210,41.554272 
	C67.109497,45.496674 67.393509,49.519497 67.391716,54.506676 
M133.115067,113.414383 
	C133.115067,116.207146 133.115067,118.999901 133.115067,122.273247 
	C139.659393,122.104881 146.233154,123.854652 150.688141,117.505142 
	C154.037689,112.731171 154.058807,104.169128 150.616821,99.570824 
	C146.077744,93.506859 139.637253,94.908813 133.115082,95.184799 
	C133.115082,101.199242 133.115082,106.817574 133.115067,113.414383 
M22.536694,99.796616 
	C22.536898,106.288696 22.430964,112.784210 22.640217,119.269547 
	C22.675711,120.369614 24.065544,121.425980 24.829666,122.502533 
	C25.291983,122.190735 25.754299,121.878944 26.216616,121.567146 
	C26.216616,117.616112 26.216616,113.665070 26.216616,109.760666 
	C30.473677,109.760666 34.403919,109.760666 38.806469,109.760666 
	C38.806469,113.345963 38.694107,116.647232 38.886654,119.930611 
	C38.933907,120.736397 39.977036,121.483780 40.562313,122.258018 
	C41.089706,121.598824 42.066826,120.945732 42.075867,120.279510 
	C42.182034,112.457199 42.181465,104.632362 42.068050,96.810234 
	C42.059124,96.194450 40.998188,95.593918 40.426170,94.986298 
	C39.889252,95.631516 38.927822,96.252129 38.888767,96.926193 
	C38.718204,99.870064 38.815407,102.829453 38.815407,105.994034 
	C34.285686,105.994034 30.271252,105.994034 25.949520,105.994034 
	C25.949520,102.191467 25.949520,98.735672 25.949520,95.279877 
	C25.394337,95.092415 24.839153,94.904961 24.283972,94.717499 
	C23.701658,96.103844 23.119345,97.490196 22.536694,99.796616 
M46.425438,117.414810 
	C48.041508,122.388176 50.385136,123.663170 54.827080,122.397026 
	C57.024754,121.770584 59.379414,121.694901 62.069096,121.312271 
	C62.069096,117.046104 62.613720,112.018684 61.815266,107.214485 
	C61.470268,105.138702 58.641781,102.648247 56.421425,101.909836 
	C53.266960,100.860794 49.857750,101.781128 47.322296,105.451500 
	C51.501572,106.481094 57.172058,101.192505 58.820354,108.937752 
	C54.113792,110.961227 47.677574,109.811905 46.425438,117.414810 
M87.144135,122.229309 
	C88.361420,119.153008 89.578697,116.076714 90.884056,112.777824 
	C95.334755,115.657784 95.159912,121.856819 101.689819,122.456848 
	C98.718925,117.703690 96.381363,113.963791 94.027382,110.197639 
	C96.170868,107.536758 98.125671,105.110100 100.649940,101.976517 
	C93.628998,102.264160 93.043129,109.386566 88.100426,111.686119 
	C88.100426,106.156395 88.204758,101.049591 88.019089,95.953354 
	C87.978218,94.831474 86.908043,93.747078 86.311859,92.645424 
	C85.822601,93.693642 84.924858,94.735764 84.909134,95.791031 
	C84.790253,103.766670 84.799248,111.745529 84.910431,119.721397 
	C84.922363,120.577095 85.843887,121.420113 87.144135,122.229309 
M76.913811,122.762321 
	C78.606995,121.769318 81.865273,122.029434 80.931160,118.368294 
	C80.033089,118.507988 79.657982,118.464310 79.408272,118.620773 
	C76.525772,120.426689 73.609795,120.644714 71.348518,117.901115 
	C68.793846,114.801544 68.658089,111.108612 70.541725,107.629158 
	C72.207878,104.551430 74.958130,103.963562 78.250816,105.102844 
	C79.061653,105.383392 80.139267,104.892906 81.452332,104.705872 
	C80.787773,103.606445 80.689377,103.220505 80.447105,103.076317 
	C76.796158,100.903610 73.149399,101.029655 69.724716,103.471535 
	C66.193130,105.989662 64.756096,111.418785 66.297554,116.139198 
	C67.839340,120.860611 71.286743,122.944885 76.913811,122.762321 
M97.093529,42.368305 
	C95.934273,41.340054 94.775017,40.311802 93.275101,38.981392 
	C93.275101,43.068184 93.275101,46.473431 93.275101,49.792351 
	C96.966881,49.792351 100.403145,49.792351 104.930389,49.792351 
	C101.942223,46.974789 99.770264,44.926830 97.093529,42.368305 
z"/>
<path fill="#393939" opacity="1.000000" stroke="none" 
	d="
M67.391777,54.008606 
	C67.393509,49.519497 67.109497,45.496674 67.548210,41.554272 
	C67.706749,40.129581 69.532852,37.827808 70.708977,37.756504 
	C76.970894,37.376854 83.268013,37.577793 89.923157,37.577793 
	C89.923157,41.706593 90.089561,45.345726 89.875984,48.962418 
	C89.665855,52.520813 91.249718,53.703922 94.589111,53.568718 
	C98.211601,53.422050 101.844612,53.535465 105.917419,53.535465 
	C105.917419,62.301277 106.066841,70.577881 105.751175,78.836700 
	C105.705505,80.031639 103.453476,82.104614 102.179459,82.138153 
	C91.876411,82.409378 81.562469,82.226166 71.253296,82.327812 
	C68.032562,82.359566 67.345482,80.699150 67.369080,77.953812 
	C67.436272,70.138611 67.392075,62.322456 67.391777,54.008606 
M91.314758,72.938385 
	C91.810333,72.942009 92.372444,73.099686 92.788803,72.919876 
	C93.956886,72.415413 95.064865,71.771751 96.196556,71.183006 
	C95.069069,70.578064 93.962364,69.502380 92.810410,69.451500 
	C88.358749,69.254868 83.889030,69.295059 79.435204,69.474495 
	C78.606277,69.507896 77.819641,70.590782 77.013496,71.189323 
	C77.826569,71.770462 78.616005,72.809975 79.456818,72.853348 
	C83.081604,73.040314 86.721466,72.935242 91.314758,72.938385 
M92.313026,59.968384 
	C93.567116,59.538624 94.821205,59.108864 96.075294,58.679115 
	C95.521843,58.068859 94.980186,56.941212 94.413124,56.928291 
	C88.667191,56.797287 82.917091,56.848343 77.168167,56.848343 
	C77.049347,57.421322 76.930519,57.994301 76.811699,58.567280 
	C77.994560,59.034119 79.160698,59.845009 80.363419,59.903503 
	C84.018135,60.081242 87.687004,59.968235 92.313026,59.968384 
M87.491028,66.277672 
	C90.351585,66.277672 93.212135,66.277672 96.627266,66.277672 
	C94.563286,62.874931 91.201195,62.361935 80.232735,63.129761 
	C79.058952,63.211929 77.941345,64.096596 76.797684,64.608994 
	C76.938782,65.165237 77.079880,65.721489 77.220978,66.277733 
	C80.318741,66.277733 83.416496,66.277733 87.491028,66.277672 
z"/>
<path fill="#454545" opacity="1.000000" stroke="none" 
	d="
M107.421387,103.272621 
	C107.513718,108.594643 107.694511,113.917900 107.620071,119.237587 
	C107.606010,120.241974 106.576637,121.232155 106.015755,122.228882 
	C105.444473,121.236244 104.394760,120.251778 104.377663,119.249687 
	C104.241714,111.285690 104.301910,103.318352 104.301910,95.525574 
	C107.416084,94.233780 108.921280,95.081383 109.832336,97.923180 
	C111.546684,103.270630 113.551575,108.524933 115.530609,114.084671 
	C120.214966,108.138504 118.762764,98.873764 125.388138,94.430382 
	C126.007477,94.680901 126.626816,94.931419 127.246155,95.181938 
	C127.246155,103.427773 127.292671,111.674286 127.171791,119.918350 
	C127.160126,120.713943 126.109795,121.494308 125.541618,122.281746 
	C125.016449,121.455475 124.056335,120.639565 124.036354,119.801247 
	C123.901596,114.149742 123.966110,108.493477 123.320236,102.582741 
	C121.119408,108.381439 118.918579,114.180145 116.717743,119.978844 
	C116.113159,119.983284 115.508568,119.987724 114.903976,119.992165 
	C112.833961,114.376854 110.763947,108.761536 108.472557,102.529305 
	C108.037117,101.460869 107.823044,101.009354 107.608978,100.557846 
	C107.408409,100.629601 107.207840,100.701363 107.007263,100.773125 
	C107.145309,101.606285 107.283348,102.439453 107.421387,103.272621 
z"/>
<path fill="#474747" opacity="1.000000" stroke="none" 
	d="
M133.115082,112.925140 
	C133.115082,106.817574 133.115082,101.199242 133.115082,95.184799 
	C139.637253,94.908813 146.077744,93.506859 150.616821,99.570824 
	C154.058807,104.169128 154.037689,112.731171 150.688141,117.505142 
	C146.233154,123.854652 139.659393,122.104881 133.115067,122.273247 
	C133.115067,118.999901 133.115067,116.207146 133.115082,112.925140 
M145.048218,99.096649 
	C142.536224,98.582169 140.024231,98.067688 137.253357,97.500183 
	C137.253357,105.174591 137.253357,112.151711 137.253357,119.144157 
	C142.187775,119.596146 146.588043,119.133072 148.287598,114.141167 
	C150.042252,108.987564 150.382523,103.718315 145.048218,99.096649 
z"/>
<path fill="#393939" opacity="1.000000" stroke="none" 
	d="
M22.536861,99.336578 
	C23.119345,97.490196 23.701658,96.103844 24.283972,94.717499 
	C24.839153,94.904961 25.394337,95.092415 25.949520,95.279877 
	C25.949520,98.735672 25.949520,102.191467 25.949520,105.994034 
	C30.271252,105.994034 34.285686,105.994034 38.815407,105.994034 
	C38.815407,102.829453 38.718204,99.870064 38.888767,96.926193 
	C38.927822,96.252129 39.889252,95.631516 40.426170,94.986298 
	C40.998188,95.593918 42.059124,96.194450 42.068050,96.810234 
	C42.181465,104.632362 42.182034,112.457199 42.075867,120.279510 
	C42.066826,120.945732 41.089706,121.598824 40.562317,122.258018 
	C39.977036,121.483780 38.933907,120.736397 38.886654,119.930611 
	C38.694107,116.647232 38.806469,113.345963 38.806469,109.760666 
	C34.403919,109.760666 30.473677,109.760666 26.216616,109.760666 
	C26.216616,113.665070 26.216616,117.616112 26.216616,121.567146 
	C25.754299,121.878944 25.291983,122.190735 24.829666,122.502533 
	C24.065544,121.425980 22.675711,120.369614 22.640217,119.269547 
	C22.430964,112.784210 22.536898,106.288696 22.536861,99.336578 
z"/>
<path fill="#404040" opacity="1.000000" stroke="none" 
	d="
M46.458405,117.045219 
	C47.677574,109.811905 54.113792,110.961227 58.820354,108.937752 
	C57.172058,101.192505 51.501572,106.481094 47.322296,105.451500 
	C49.857750,101.781128 53.266960,100.860794 56.421425,101.909836 
	C58.641781,102.648247 61.470268,105.138702 61.815266,107.214485 
	C62.613720,112.018684 62.069096,117.046104 62.069096,121.312271 
	C59.379414,121.694901 57.024754,121.770584 54.827080,122.397026 
	C50.385136,123.663170 48.041508,122.388176 46.458405,117.045219 
M55.162895,112.372406 
	C53.958038,112.885475 52.360332,113.088379 51.648155,113.990425 
	C50.765842,115.107971 49.828072,117.613647 50.312965,118.087082 
	C51.394798,119.143333 53.936779,120.219292 54.816490,119.646873 
	C56.561916,118.511154 58.037685,116.435989 58.787792,114.435242 
	C59.629787,112.189400 57.925739,111.666351 55.162895,112.372406 
z"/>
<path fill="#3A3A3A" opacity="1.000000" stroke="none" 
	d="
M86.743797,122.249161 
	C85.843887,121.420113 84.922363,120.577095 84.910431,119.721397 
	C84.799248,111.745529 84.790253,103.766670 84.909134,95.791031 
	C84.924858,94.735764 85.822601,93.693642 86.311859,92.645424 
	C86.908043,93.747078 87.978218,94.831474 88.019089,95.953354 
	C88.204758,101.049591 88.100426,106.156395 88.100426,111.686119 
	C93.043129,109.386566 93.628998,102.264160 100.649940,101.976517 
	C98.125671,105.110100 96.170868,107.536758 94.027382,110.197639 
	C96.381363,113.963791 98.718925,117.703690 101.689819,122.456848 
	C95.159912,121.856819 95.334755,115.657784 90.884056,112.777824 
	C89.578697,116.076714 88.361420,119.153008 86.743797,122.249161 
z"/>
<path fill="#414141" opacity="1.000000" stroke="none" 
	d="
M76.533447,122.822083 
	C71.286743,122.944885 67.839340,120.860611 66.297554,116.139198 
	C64.756096,111.418785 66.193130,105.989662 69.724716,103.471535 
	C73.149399,101.029655 76.796158,100.903610 80.447105,103.076317 
	C80.689377,103.220505 80.787773,103.606445 81.452332,104.705872 
	C80.139267,104.892906 79.061653,105.383392 78.250816,105.102844 
	C74.958130,103.963562 72.207878,104.551430 70.541725,107.629158 
	C68.658089,111.108612 68.793846,114.801544 71.348518,117.901115 
	C73.609795,120.644714 76.525772,120.426689 79.408272,118.620773 
	C79.657982,118.464310 80.033089,118.507988 80.931160,118.368294 
	C81.865273,122.029434 78.606995,121.769318 76.533447,122.822083 
z"/>
<path fill="#373737" opacity="1.000000" stroke="none" 
	d="
M97.345917,42.623589 
	C99.770264,44.926830 101.942223,46.974789 104.930389,49.792351 
	C100.403145,49.792351 96.966881,49.792351 93.275101,49.792351 
	C93.275101,46.473431 93.275101,43.068184 93.275101,38.981392 
	C94.775017,40.311802 95.934273,41.340054 97.345917,42.623589 
z"/>
<path fill="#989898" opacity="1.000000" stroke="none" 
	d="
M107.683472,103.158875 
	C107.283348,102.439453 107.145309,101.606285 107.007263,100.773125 
	C107.207840,100.701363 107.408409,100.629601 107.608978,100.557846 
	C107.823044,101.009354 108.037117,101.460869 108.238029,102.229507 
	C108.131767,102.712791 108.038658,102.878960 107.683472,103.158875 
z"/>
<path fill="#D7D7D7" opacity="1.000000" stroke="none" 
	d="
M90.835297,72.937439 
	C86.721466,72.935242 83.081604,73.040314 79.456818,72.853348 
	C78.616005,72.809975 77.826569,71.770462 77.013496,71.189323 
	C77.819641,70.590782 78.606277,69.507896 79.435204,69.474495 
	C83.889030,69.295059 88.358749,69.254868 92.810410,69.451500 
	C93.962364,69.502380 95.069069,70.578064 96.196556,71.182999 
	C95.064865,71.771751 93.956886,72.415413 92.788803,72.919876 
	C92.372444,73.099686 91.810333,72.942009 90.835297,72.937439 
z"/>
<path fill="#FAFAFA" opacity="1.000000" stroke="none" 
	d="
M91.831696,59.968422 
	C87.687004,59.968235 84.018135,60.081242 80.363419,59.903503 
	C79.160698,59.845009 77.994560,59.034119 76.811699,58.567280 
	C76.930519,57.994301 77.049347,57.421322 77.168167,56.848343 
	C82.917091,56.848343 88.667191,56.797287 94.413124,56.928291 
	C94.980186,56.941212 95.521843,58.068859 96.075294,58.679111 
	C94.821205,59.108864 93.567116,59.538624 91.831696,59.968422 
z"/>
<path fill="#F5F5F5" opacity="1.000000" stroke="none" 
	d="
M87.002640,66.277702 
	C83.416496,66.277733 80.318741,66.277733 77.220978,66.277733 
	C77.079880,65.721489 76.938782,65.165237 76.797684,64.608994 
	C77.941345,64.096596 79.058952,63.211929 80.232735,63.129761 
	C91.201195,62.361935 94.563286,62.874931 96.627266,66.277672 
	C93.212135,66.277672 90.351585,66.277672 87.002640,66.277702 
z"/>
<path fill="#FDFDFD" opacity="1.000000" stroke="none" 
	d="
M145.399078,99.298676 
	C150.382523,103.718315 150.042252,108.987564 148.287598,114.141167 
	C146.588043,119.133072 142.187775,119.596146 137.253357,119.144157 
	C137.253357,112.151711 137.253357,105.174591 137.253357,97.500183 
	C140.024231,98.067688 142.536224,98.582169 145.399078,99.298676 
z"/>
<path fill="#F5F5F5" opacity="1.000000" stroke="none" 
	d="
M55.554340,112.266479 
	C57.925739,111.666351 59.629787,112.189400 58.787792,114.435242 
	C58.037685,116.435989 56.561916,118.511154 54.816490,119.646873 
	C53.936779,120.219292 51.394798,119.143333 50.312965,118.087082 
	C49.828072,117.613647 50.765842,115.107971 51.648155,113.990425 
	C52.360332,113.088379 53.958038,112.885475 55.554340,112.266479 
z"/>
</svg>